<svg xmlns="http://www.w3.org/2000/svg" width="600" height="400" viewBox="0 0 600 400">
  <rect width="600" height="400" fill="#F1F8E9"/>
  <rect x="0" y="0" width="600" height="400" fill="url(#grid)" opacity="0.4"/>
  <defs>
    <pattern id="grid" width="40" height="40" patternUnits="userSpaceOnUse">
      <path d="M 40 0 L 0 0 0 40" fill="none" stroke="#C8E6C9" stroke-width="1"/>
    </pattern>
  </defs>
  <!-- Flask icon -->
  <g transform="translate(300,185)">
    <path d="M-30,-55 L-30,-10 L-55,40 Q-62,55,-50,62 L50,62 Q62,55,55,40 L30,-10 L30,-55 Z"
          fill="none" stroke="#81C784" stroke-width="5" stroke-linejoin="round"/>
    <path d="M-30,-10 L-55,40 Q-62,55,-50,62 L50,62 Q62,55,55,40 L30,-10 Z"
          fill="#C8E6C9" opacity="0.7"/>
    <circle cx="-15" cy="30" r="6" fill="#4CAF50" opacity="0.6"/>
    <circle cx="10"  cy="45" r="4" fill="#388E3C" opacity="0.5"/>
    <circle cx="25"  cy="25" r="8" fill="#81C784" opacity="0.5"/>
    <line x1="-38" y1="-55" x2="38" y2="-55" stroke="#81C784" stroke-width="5" stroke-linecap="round"/>
  </g>
  <text x="300" y="278" text-anchor="middle"
        font-family="'Poppins',sans-serif" font-size="13"
        font-weight="600" fill="#388E3C" opacity="0.7">
    Product Image
  </text>
  <text x="300" y="298" text-anchor="middle"
        font-family="'Inter',sans-serif" font-size="11"
        fill="#81C784" opacity="0.6">
    Eligald Industrial Chemicals
  </text>
</svg>
